<svg width="613" height="260" viewBox="0 0 613 260" fill="none" xmlns="http://www.w3.org/2000/svg">
<path d="M265.78 184.586V117.464H292.655C297.593 117.464 301.711 118.195 305.011 119.659C308.31 121.123 310.79 123.155 312.45 125.755C314.111 128.334 314.941 131.305 314.941 134.67C314.941 137.292 314.417 139.597 313.368 141.585C312.319 143.552 310.877 145.169 309.042 146.436C307.228 147.682 305.153 148.566 302.815 149.091V149.746C305.371 149.856 307.764 150.577 309.992 151.909C312.243 153.242 314.067 155.11 315.466 157.514C316.864 159.895 317.563 162.736 317.563 166.035C317.563 169.597 316.678 172.776 314.908 175.573C313.16 178.347 310.571 180.543 307.141 182.16C303.71 183.777 299.483 184.586 294.457 184.586H265.78ZM279.971 172.983H291.54C295.495 172.983 298.379 172.23 300.193 170.722C302.006 169.192 302.913 167.16 302.913 164.626C302.913 162.769 302.465 161.13 301.569 159.71C300.673 158.29 299.395 157.175 297.735 156.367C296.096 155.558 294.14 155.154 291.868 155.154H279.971V172.983ZM279.971 145.551H290.491C292.436 145.551 294.162 145.213 295.67 144.535C297.199 143.836 298.401 142.853 299.275 141.585C300.171 140.318 300.619 138.8 300.619 137.03C300.619 134.605 299.756 132.649 298.03 131.163C296.325 129.677 293.9 128.935 290.754 128.935H279.971V145.551Z" fill="#F8F9FA"/>
<path d="M340.89 185.536C337.678 185.536 334.816 184.979 332.303 183.865C329.791 182.728 327.802 181.057 326.338 178.85C324.896 176.621 324.175 173.846 324.175 170.525C324.175 167.729 324.689 165.38 325.716 163.479C326.743 161.578 328.141 160.048 329.911 158.89C331.681 157.732 333.691 156.858 335.941 156.268C338.214 155.678 340.595 155.263 343.086 155.023C346.014 154.717 348.374 154.433 350.165 154.171C351.957 153.887 353.257 153.472 354.066 152.925C354.874 152.379 355.278 151.571 355.278 150.5V150.303C355.278 148.228 354.623 146.622 353.312 145.486C352.023 144.349 350.187 143.781 347.806 143.781C345.293 143.781 343.294 144.339 341.808 145.453C340.322 146.545 339.339 147.922 338.858 149.582L325.945 148.534C326.601 145.475 327.89 142.831 329.813 140.602C331.735 138.352 334.215 136.626 337.252 135.424C340.311 134.2 343.851 133.589 347.871 133.589C350.668 133.589 353.345 133.916 355.901 134.572C358.479 135.227 360.763 136.243 362.751 137.62C364.761 138.996 366.345 140.766 367.503 142.929C368.661 145.07 369.24 147.638 369.24 150.631V184.586H355.999V177.605H355.606C354.798 179.178 353.716 180.565 352.361 181.767C351.007 182.947 349.379 183.875 347.478 184.553C345.577 185.208 343.381 185.536 340.89 185.536ZM344.889 175.9C346.943 175.9 348.756 175.496 350.329 174.688C351.903 173.857 353.137 172.743 354.033 171.345C354.929 169.946 355.377 168.362 355.377 166.592V161.25C354.94 161.534 354.339 161.796 353.574 162.037C352.831 162.255 351.99 162.463 351.05 162.659C350.111 162.834 349.171 162.998 348.232 163.151C347.292 163.282 346.44 163.402 345.675 163.512C344.037 163.752 342.606 164.134 341.382 164.659C340.158 165.183 339.208 165.893 338.531 166.789C337.853 167.663 337.515 168.755 337.515 170.066C337.515 171.967 338.203 173.42 339.579 174.425C340.978 175.409 342.748 175.9 344.889 175.9Z" fill="#F8F9FA"/>
<path d="M380.072 184.586V134.244H393.608V143.028H394.132C395.05 139.903 396.59 137.543 398.754 135.948C400.917 134.331 403.408 133.523 406.226 133.523C406.925 133.523 407.679 133.567 408.488 133.654C409.296 133.741 410.006 133.862 410.618 134.015V146.403C409.962 146.207 409.056 146.032 407.898 145.879C406.74 145.726 405.68 145.65 404.719 145.65C402.665 145.65 400.829 146.097 399.212 146.993C397.617 147.867 396.35 149.091 395.411 150.664C394.493 152.237 394.034 154.051 394.034 156.105V184.586H380.072Z" fill="#F8F9FA"/>
<path d="M417.836 184.586V134.244H431.372V143.028H431.897C432.814 139.903 434.355 137.543 436.518 135.948C438.681 134.331 441.172 133.523 443.99 133.523C444.69 133.523 445.443 133.567 446.252 133.654C447.06 133.741 447.77 133.862 448.382 134.015V146.403C447.727 146.207 446.82 146.032 445.662 145.879C444.504 145.726 443.444 145.65 442.483 145.65C440.429 145.65 438.594 146.097 436.977 146.993C435.382 147.867 434.114 149.091 433.175 150.664C432.257 152.237 431.798 154.051 431.798 156.105V184.586H417.836Z" fill="#F8F9FA"/>
<path d="M476.003 185.569C470.912 185.569 466.509 184.487 462.795 182.324C459.102 180.139 456.251 177.102 454.241 173.213C452.231 169.302 451.225 164.768 451.225 159.611C451.225 154.411 452.231 149.866 454.241 145.977C456.251 142.066 459.102 139.029 462.795 136.866C466.509 134.681 470.912 133.589 476.003 133.589C481.094 133.589 485.486 134.681 489.178 136.866C492.893 139.029 495.755 142.066 497.765 145.977C499.775 149.866 500.78 154.411 500.78 159.611C500.78 164.768 499.775 169.302 497.765 173.213C495.755 177.102 492.893 180.139 489.178 182.324C485.486 184.487 481.094 185.569 476.003 185.569ZM476.068 174.753C478.385 174.753 480.318 174.098 481.87 172.787C483.421 171.454 484.59 169.64 485.376 167.346C486.185 165.052 486.589 162.441 486.589 159.513C486.589 156.585 486.185 153.974 485.376 151.68C484.59 149.386 483.421 147.572 481.87 146.239C480.318 144.907 478.385 144.24 476.068 144.24C473.731 144.24 471.764 144.907 470.169 146.239C468.596 147.572 467.405 149.386 466.597 151.68C465.81 153.974 465.417 156.585 465.417 159.513C465.417 162.441 465.81 165.052 466.597 167.346C467.405 169.64 468.596 171.454 470.169 172.787C471.764 174.098 473.731 174.753 476.068 174.753Z" fill="#F8F9FA"/>
<path d="M572.941 117.464H587.133V161.053C587.133 165.948 585.964 170.23 583.626 173.901C581.31 177.572 578.065 180.434 573.892 182.488C569.719 184.52 564.857 185.536 559.307 185.536C553.736 185.536 548.863 184.52 544.69 182.488C540.517 180.434 537.272 177.572 534.956 173.901C532.64 170.23 531.482 165.948 531.482 161.053V117.464H545.673V159.841C545.673 162.397 546.23 164.67 547.345 166.658C548.481 168.646 550.076 170.208 552.13 171.345C554.184 172.481 556.576 173.049 559.307 173.049C562.06 173.049 564.453 172.481 566.485 171.345C568.539 170.208 570.123 168.646 571.237 166.658C572.373 164.67 572.941 162.397 572.941 159.841V117.464Z" fill="#F8F9FA"/>
<path d="M613 117.464V184.586H598.809V117.464H613Z" fill="#F8F9FA"/>
<path d="M219.289 181.703C219.289 181.703 213.532 155.327 211.426 144.011C209.321 132.696 208.125 126.095 206.512 114.935C204.547 105.243 205.53 97.7049 202.581 92.3204C196.685 84.7822 191.46 81.2541 182.926 76.1669C174.391 71.0798 145.58 64.3212 134.769 64.3212C97.4234 63.2443 77.7677 80.8052 58.112 106.32C49.2669 120.32 38.4563 139.704 32.5596 149.396C26.6629 161.242 4.39292e-05 216.39 0 259.239H153.442V239.855C153.442 239.855 151.476 228.009 148.528 214.009C143.614 200.01 138.7 159.088 138.7 159.088C138.7 159.088 137.717 140.781 137.717 132.165C140.666 137.55 141.124 140.15 143.614 145.088C146.105 150.027 151.476 159.088 151.476 159.088L161.304 173.087C161.304 173.087 171.132 183.856 178.994 190.318L178.954 190.583C177.987 196.927 177.177 202.238 187.839 207.548C196.488 211.856 207.495 207.548 215.357 200.01C221.254 194.625 219.289 181.703 219.289 181.703Z" fill="#F8F9FA"/>
<path fill-rule="evenodd" clip-rule="evenodd" d="M133.056 0.00012207C157.647 0.00012207 190.171 13.9088 199.146 25.2599C215.345 42.3369 219.652 86.3383 216.389 97.4824C199.145 78.2003 177.115 57.9514 131.424 57.9514C85.733 57.9514 59.9884 89.9838 52.4898 103.91C52.4899 77.1291 37.4925 52.4899 64.5182 25.2599C89.8135 1.18799 109.944 0.00012207 133.056 0.00012207ZM179.845 41.3849C176.32 40.8493 173.654 39.3764 173.654 39.3764C173.654 39.3764 174.803 42.2104 176.676 44.5149C176.612 46.2807 173.654 50.3607 173.654 50.3607C173.654 50.3607 176.869 49.176 179.563 49.0342C180.375 51.2531 183.614 54.2092 183.643 54.2355C183.557 54.2401 184.192 50.4629 184.392 48.2914C186.255 47.4727 190.171 46.8059 190.171 46.8059C190.171 46.8059 187.59 43.5405 185.17 42.8662C185.233 41.1123 184.403 37.3512 184.392 37.3008L179.845 41.3849ZM82.4697 37.8909C82.544 37.8756 83.133 41.1984 83.2857 43.0922C81.8113 44.0243 79.2065 46.7042 79.1849 46.7264C79.1849 46.7264 82.5645 47.9093 84.7482 48.1889C84.9578 49.7162 87.3656 53.4928 87.3656 53.4928C87.3773 53.4659 88.7178 50.3879 89.8135 49.0342C92.8889 49.0572 95.285 48.802 95.3434 48.7957C95.3434 48.7957 94.2176 46.3285 92.2615 44.5777C93.0774 40.8629 93.0775 38.6336 93.0775 38.6336C93.0775 38.6336 90.4787 40.4053 88.1816 40.8619C86.0641 40.2174 82.5015 37.9114 82.4697 37.8909ZM129.792 24.5172C124.131 25.2536 119.271 25.9898 119.187 26.0027C119.224 26.028 122.472 28.2494 126.528 31.204C127.344 34.1759 124.896 42.3494 124.896 42.3494C124.896 42.3494 130.609 38.634 134.688 37.1481C138.649 37.8696 143.38 42.0921 143.651 42.3369C143.496 42.0265 142.825 35.5561 142.032 31.9468C144.472 29.7247 149.344 26.0254 149.374 26.0027C149.285 25.9825 142.82 24.5173 138.768 24.5172C137.953 21.5475 134.693 15.6108 134.688 15.6021L129.792 24.5172Z" fill="#F8F9FA"/>
</svg>
