<svg width="65" height="77" viewBox="0 0 65 77" fill="none" xmlns="http://www.w3.org/2000/svg">
<path d="M64.9069 53.7819C64.9069 53.7819 63.203 45.9749 62.5798 42.6257C61.9566 39.2765 61.6026 37.3225 61.1253 34.0195C60.5435 31.1508 60.8344 28.9195 59.9617 27.3258C58.2164 25.0946 56.67 24.0503 54.1439 22.5445C51.6178 21.0388 43.0899 19.0383 39.8901 19.0383C28.8362 18.7196 23.0183 23.9174 17.2005 31.4695C14.5825 35.6132 11.3826 41.3507 9.63728 44.2194C7.89192 47.7257 1.30025e-05 64.0488 0 76.7318H45.4171V70.9943C45.4171 70.9943 44.8353 67.4881 43.9626 63.3443C42.5082 59.2006 41.0537 47.0882 41.0537 47.0882C41.0537 47.0882 40.7628 41.6694 40.7628 39.1194C41.6355 40.7132 41.771 41.4827 42.5082 42.9445C43.2453 44.4062 44.8353 47.0882 44.8353 47.0882L47.7442 51.2319C47.7442 51.2319 50.6532 54.4194 52.9803 56.3319L52.9683 56.4104C52.6821 58.2881 52.4424 59.86 55.5983 61.4319C58.1582 62.7069 61.4162 61.4318 63.7433 59.2006C65.4887 57.6069 64.9069 53.7819 64.9069 53.7819Z" fill="#F8F9FA"/>
<path fill-rule="evenodd" clip-rule="evenodd" d="M39.3831 5.91278e-05C46.6618 5.91278e-05 56.2883 4.11687 58.945 7.47667C63.7397 12.5313 65.0145 25.5552 64.0485 28.8537C58.9445 23.1464 52.4241 17.153 38.9001 17.153C25.376 17.153 17.7559 26.6342 15.5364 30.7561C15.5364 22.8293 11.0973 15.5364 19.0966 7.47667C26.5838 0.351655 32.5422 5.91278e-05 39.3831 5.91278e-05ZM53.2321 12.2495C52.1887 12.091 51.3997 11.655 51.3997 11.655C51.3997 11.655 51.7396 12.4938 52.2939 13.1759C52.275 13.6986 51.3997 14.9062 51.3997 14.9062C51.3997 14.9062 52.3512 14.5555 53.1485 14.5136C53.389 15.1704 54.3476 16.0453 54.3561 16.0531C54.3307 16.0545 54.5186 14.9365 54.5778 14.2937C55.1293 14.0514 56.2883 13.854 56.2883 13.854C56.2883 13.854 55.5245 12.8875 54.8082 12.6879C54.8268 12.1688 54.5811 11.0555 54.5778 11.0406L53.2321 12.2495ZM24.4101 11.2153C24.4321 11.2108 24.6064 12.1943 24.6516 12.7548C24.2152 13.0307 23.4442 13.8239 23.4378 13.8305C23.4378 13.8305 24.4381 14.1806 25.0845 14.2634C25.1465 14.7155 25.8592 15.8333 25.8592 15.8333C25.8627 15.8253 26.2594 14.9143 26.5838 14.5136C27.494 14.5204 28.2032 14.4449 28.2205 14.443C28.2205 14.443 27.8873 13.7127 27.3083 13.1945C27.5498 12.095 27.5498 11.4351 27.5498 11.4351C27.5498 11.4351 26.7806 11.9595 26.1007 12.0947C25.474 11.9039 24.4195 11.2214 24.4101 11.2153ZM38.417 7.25682C36.7413 7.4748 35.3029 7.69272 35.2779 7.69651C35.2888 7.704 36.2504 8.36151 37.4509 9.23605C37.6925 10.1157 36.9679 12.535 36.9679 12.535C36.9679 12.535 38.6586 11.4353 39.8662 10.9954C41.0386 11.209 42.4388 12.4588 42.5192 12.5313C42.473 12.4394 42.2745 10.5242 42.0398 9.4559C42.7622 8.7982 44.204 7.70324 44.2129 7.69651C44.1866 7.69054 42.273 7.25687 41.0738 7.25682C40.8324 6.37784 39.8676 4.62065 39.8662 4.61805L38.417 7.25682Z" fill="#F8F9FA"/>
</svg>
